<svg width="350" height="128" viewBox="0 0 350 128" fill="none" xmlns="http://www.w3.org/2000/svg">
<rect width="350" height="128" fill="white"/>
<circle cx="44" cy="44" r="28" fill="#2E2F33"/>
<path fill-rule="evenodd" clip-rule="evenodd" d="M37.3116 33.3521C31.2044 33.3521 26.2535 38.2958 26.2535 44.3943C26.2535 50.4928 31.2044 55.4366 37.3116 55.4366H49.2615C56.1568 55.4366 61.7465 49.8549 61.7465 42.9695V33.3521H37.3116ZM33.0311 44.3943C33.0311 41.6447 35.2766 39.4075 38.0567 39.4075H45.3036C44.1816 40.436 43.4077 41.8373 43.1787 43.4148H37.49V45.1958H43.0177C42.6316 47.5658 40.561 49.3811 38.0567 49.3811C35.2766 49.3811 33.0311 47.144 33.0311 44.3943ZM56.3958 39.4075H49.8858C47.1277 39.4075 44.8918 41.6402 44.8918 44.3943C44.8918 47.1485 47.1277 49.3811 49.8858 49.3811C52.6439 49.3811 54.8797 47.1485 54.8797 44.3943H56.6633C56.6633 48.1321 53.6289 51.1621 49.8858 51.1621C47.3557 51.1621 45.1494 49.7778 43.9851 47.7262C42.8147 49.7789 40.5964 51.1621 38.0567 51.1621C34.3006 51.1621 31.2475 48.1366 31.2475 44.3943C31.2475 40.652 34.3006 37.6265 38.0567 37.6265H49.8858H56.3958V39.4075Z" fill="#FCF9F5"/>
<path d="M95.984 23.8H98.368V35H95.984V30.344H91.216V35H88.848V23.8H91.216V28.072H95.984V23.8ZM107.619 30.808C107.619 30.984 107.603 31.352 107.571 31.608H101.731C101.891 32.632 102.675 33.288 103.731 33.288C104.611 33.288 105.171 32.904 105.299 32.36H107.507C107.251 34.056 105.763 35.16 103.795 35.16C101.475 35.16 99.6671 33.352 99.6671 31.032C99.6671 28.744 101.459 26.984 103.747 26.984C105.875 26.984 107.619 28.648 107.619 30.808ZM101.843 30.168H105.267C105.203 29.368 104.483 28.808 103.651 28.808C102.787 28.808 102.115 29.24 101.843 30.168ZM113.657 27.144H116.089L111.721 37.608H109.305L110.761 34.36L107.737 27.144H110.169L111.913 31.736L113.657 27.144ZM120.332 35V23.8H124.54C126.476 23.8 128.028 25.16 128.028 26.776C128.028 27.784 127.372 28.776 126.476 29.08C127.66 29.32 128.54 30.424 128.54 31.8C128.54 33.608 126.94 35 125.02 35H120.332ZM122.7 28.312H124.428C125.1 28.312 125.628 27.8 125.628 27.176C125.628 26.552 125.1 26.072 124.428 26.072H122.7V28.312ZM122.7 32.728H124.812C125.548 32.728 126.124 32.152 126.124 31.432C126.124 30.712 125.548 30.12 124.844 30.12H122.7V32.728ZM135.514 27.144H137.77V35H135.514V33.88C134.97 34.696 134.122 35.16 133.018 35.16C130.986 35.16 129.37 33.32 129.37 31.064C129.37 28.808 130.986 26.984 133.018 26.984C134.122 26.984 134.97 27.448 135.514 28.264V27.144ZM133.546 33C134.65 33 135.514 32.168 135.514 31.064C135.514 29.976 134.65 29.128 133.546 29.128C132.458 29.128 131.578 29.992 131.578 31.064C131.578 32.152 132.458 33 133.546 33ZM140.467 23.336C141.219 23.336 141.843 23.96 141.843 24.696C141.843 25.448 141.219 26.072 140.467 26.072C139.715 26.072 139.091 25.448 139.091 24.696C139.091 23.96 139.715 23.336 140.467 23.336ZM139.347 27.144H141.603V35H139.347V27.144ZM145.587 23.8V35H143.331V23.8H145.587ZM154.729 30.808C154.729 30.984 154.713 31.352 154.681 31.608H148.841C149.001 32.632 149.785 33.288 150.841 33.288C151.721 33.288 152.281 32.904 152.409 32.36H154.617C154.361 34.056 152.873 35.16 150.905 35.16C148.585 35.16 146.777 33.352 146.777 31.032C146.777 28.744 148.569 26.984 150.857 26.984C152.985 26.984 154.729 28.648 154.729 30.808ZM148.953 30.168H152.377C152.313 29.368 151.593 28.808 150.761 28.808C149.897 28.808 149.225 29.24 148.953 30.168ZM160.767 27.144H163.199L158.831 37.608H156.415L157.871 34.36L154.847 27.144H157.279L159.023 31.736L160.767 27.144ZM164.4 23.8H166.8L166.736 31.528H164.48L164.4 23.8ZM165.6 35.16C164.784 35.16 164.144 34.52 164.144 33.72C164.144 32.92 164.784 32.296 165.6 32.296C166.432 32.296 167.072 32.92 167.072 33.72C167.072 34.52 166.432 35.16 165.6 35.16ZM172.004 23.8H174.372V35H172.004V23.8ZM181.027 29.288H179.091V31.768C179.091 32.616 179.667 32.984 180.451 32.984C180.643 32.984 180.851 32.968 181.027 32.92V35C180.723 35.08 180.259 35.128 179.939 35.128C178.083 35.128 176.835 33.912 176.835 31.8V29.288H175.379V27.144H176.835V25.08H179.091V27.144H181.027V29.288ZM184.961 23.688C184.961 24.024 184.817 24.344 184.561 24.872L183.361 27.192H182.097L182.993 24.888C182.561 24.68 182.273 24.216 182.273 23.688C182.273 22.936 182.865 22.36 183.617 22.36C184.385 22.36 184.961 22.936 184.961 23.688ZM187.843 35.16C185.795 35.16 184.371 34.12 184.211 32.344H186.371C186.419 32.872 186.979 33.224 187.731 33.224C188.403 33.224 188.787 33 188.787 32.632C188.787 31.336 184.371 32.488 184.371 29.56C184.371 28.104 185.555 26.984 187.491 26.984C189.187 26.984 190.707 27.864 190.899 29.608H188.627C188.595 29.208 188.163 28.856 187.443 28.856C186.931 28.856 186.547 29.032 186.547 29.4C186.547 30.616 190.979 29.336 190.979 32.616C190.979 34.056 189.619 35.16 187.843 35.16ZM206.273 28.68C206.321 29.032 206.337 29.448 206.337 29.768C206.337 32.84 204.001 35.16 200.865 35.16C197.617 35.16 195.169 32.68 195.169 29.4C195.169 26.12 197.617 23.64 200.881 23.64C203.569 23.64 205.905 25.464 206.225 27.512H203.553C203.185 26.552 202.049 25.944 200.881 25.944C199.009 25.944 197.601 27.432 197.601 29.4C197.601 31.368 199.009 32.856 200.865 32.856C202.657 32.856 203.729 31.8 203.809 30.616V30.6H200.705V28.68H206.273ZM213.099 35.16C209.851 35.16 207.419 32.68 207.419 29.4C207.419 26.12 209.851 23.64 213.099 23.64C215.739 23.64 218.107 25.384 218.427 27.736H215.787C215.483 26.696 214.395 25.944 213.099 25.944C211.259 25.944 209.851 27.432 209.851 29.4C209.851 31.368 211.259 32.856 213.099 32.856C214.411 32.856 215.515 32.04 215.803 30.92H218.459C218.027 33.416 215.835 35.16 213.099 35.16ZM222.68 33.096L221.672 37.16H219.8L220.424 33.096H222.68ZM228.686 23.336C229.438 23.336 230.062 23.96 230.062 24.696C230.062 25.448 229.438 26.072 228.686 26.072C227.934 26.072 227.31 25.448 227.31 24.696C227.31 23.96 227.934 23.336 228.686 23.336ZM226.414 35.992C226.494 35.992 226.59 36.008 226.686 36.008C227.198 36.008 227.566 35.736 227.566 35.016V27.144H229.822V35.24C229.822 36.984 228.686 38.056 226.878 38.056C226.75 38.056 226.59 38.04 226.414 38.024V35.992ZM236.785 27.144H239.041V35H236.785V33.96C236.305 34.728 235.569 35.16 234.657 35.16C232.641 35.16 231.425 33.8 231.425 31.576V27.144H233.681V31.288C233.681 32.328 234.289 33 235.233 33C236.161 33 236.785 32.328 236.785 31.288V27.144ZM243.812 35.16C241.764 35.16 240.34 34.12 240.18 32.344H242.34C242.388 32.872 242.948 33.224 243.7 33.224C244.372 33.224 244.756 33 244.756 32.632C244.756 31.336 240.34 32.488 240.34 29.56C240.34 28.104 241.524 26.984 243.46 26.984C245.156 26.984 246.676 27.864 246.868 29.608H244.596C244.564 29.208 244.132 28.856 243.412 28.856C242.9 28.856 242.516 29.032 242.516 29.4C242.516 30.616 246.948 29.336 246.948 32.616C246.948 34.056 245.588 35.16 243.812 35.16ZM252.98 29.288H251.044V31.768C251.044 32.616 251.62 32.984 252.404 32.984C252.596 32.984 252.804 32.968 252.98 32.92V35C252.676 35.08 252.212 35.128 251.892 35.128C250.036 35.128 248.788 33.912 248.788 31.8V29.288H247.332V27.144H248.788V25.08H251.044V27.144H252.98V29.288ZM259.744 23.8V35H257.488V23.8H259.744ZM268.885 30.808C268.885 30.984 268.869 31.352 268.837 31.608H262.997C263.157 32.632 263.941 33.288 264.997 33.288C265.877 33.288 266.437 32.904 266.565 32.36H268.773C268.517 34.056 267.029 35.16 265.061 35.16C262.741 35.16 260.933 33.352 260.933 31.032C260.933 28.744 262.725 26.984 265.013 26.984C267.141 26.984 268.885 28.648 268.885 30.808ZM263.109 30.168H266.533C266.469 29.368 265.749 28.808 264.917 28.808C264.053 28.808 263.381 29.24 263.109 30.168ZM274.98 29.288H273.044V31.768C273.044 32.616 273.62 32.984 274.404 32.984C274.596 32.984 274.804 32.968 274.98 32.92V35C274.676 35.08 274.212 35.128 273.892 35.128C272.036 35.128 270.788 33.912 270.788 31.8V29.288H269.332V27.144H270.788V25.08H273.044V27.144H274.98V29.288ZM281.23 29.288H279.294V31.768C279.294 32.616 279.87 32.984 280.654 32.984C280.846 32.984 281.054 32.968 281.23 32.92V35C280.926 35.08 280.462 35.128 280.142 35.128C278.286 35.128 277.038 33.912 277.038 31.8V29.288H275.582V27.144H277.038V25.08H279.294V27.144H281.23V29.288ZM283.592 23.336C284.344 23.336 284.968 23.96 284.968 24.696C284.968 25.448 284.344 26.072 283.592 26.072C282.84 26.072 282.216 25.448 282.216 24.696C282.216 23.96 282.84 23.336 283.592 23.336ZM282.472 27.144H284.728V35H282.472V27.144ZM290.715 26.984C292.731 26.984 293.947 28.328 293.947 30.552V35H291.691V30.84C291.691 29.816 291.067 29.144 290.139 29.144C289.195 29.144 288.587 29.816 288.587 30.84V35H286.331V27.144H288.587V28.168C289.083 27.416 289.819 26.984 290.715 26.984ZM301.342 27.128H303.598V34.664C303.598 36.888 301.806 38.232 299.534 38.232C298.078 38.232 295.582 37.704 295.438 35.304H297.694C297.758 36.008 298.558 36.36 299.454 36.36C300.43 36.36 301.342 35.72 301.342 34.76V33.624C300.798 34.424 299.95 34.856 298.846 34.856C296.814 34.856 295.198 33.08 295.198 30.92C295.198 28.744 296.814 26.984 298.846 26.984C299.95 26.984 300.798 27.416 301.342 28.216V27.128ZM299.374 32.776C300.478 32.776 301.342 31.976 301.342 30.92C301.342 29.864 300.478 29.048 299.374 29.048C298.286 29.048 297.406 29.88 297.406 30.92C297.406 31.96 298.286 32.776 299.374 32.776ZM94.048 51.144H96.48L92.112 61.608H89.696L91.152 58.36L88.128 51.144H90.56L92.304 55.736L94.048 51.144ZM100.685 50.984C102.989 50.984 104.765 52.744 104.765 55.08C104.765 57.416 102.989 59.16 100.685 59.16C98.3646 59.16 96.6046 57.416 96.6046 55.08C96.6046 52.744 98.3646 50.984 100.685 50.984ZM100.685 53.144C99.6126 53.144 98.8126 53.96 98.8126 55.08C98.8126 56.168 99.6126 57 100.685 57C101.741 57 102.557 56.168 102.557 55.08C102.557 53.96 101.741 53.144 100.685 53.144ZM111.394 51.144H113.65V59H111.394V57.96C110.914 58.728 110.178 59.16 109.266 59.16C107.25 59.16 106.034 57.8 106.034 55.576V51.144H108.29V55.288C108.29 56.328 108.898 57 109.842 57C110.77 57 111.394 56.328 111.394 55.288V51.144ZM126.503 59H123.607L120.759 55.48V59H118.503V47.8H120.759V54.392L123.479 51.144H126.247L122.983 54.936L126.503 59ZM131.793 50.984C133.809 50.984 135.025 52.328 135.025 54.552V59H132.769V54.84C132.769 53.816 132.145 53.144 131.217 53.144C130.273 53.144 129.665 53.816 129.665 54.84V59H127.409V51.144H129.665V52.168C130.161 51.416 130.897 50.984 131.793 50.984ZM140.357 50.984C142.661 50.984 144.437 52.744 144.437 55.08C144.437 57.416 142.661 59.16 140.357 59.16C138.037 59.16 136.277 57.416 136.277 55.08C136.277 52.744 138.037 50.984 140.357 50.984ZM140.357 53.144C139.285 53.144 138.485 53.96 138.485 55.08C138.485 56.168 139.285 57 140.357 57C141.413 57 142.229 56.168 142.229 55.08C142.229 53.96 141.413 53.144 140.357 53.144ZM147.46 59L144.628 51.144H147.044L148.356 55.448L149.924 51.144H151.684L153.268 55.448L154.564 51.144H156.996L154.164 59H152.388L150.804 54.696L149.204 59H147.46ZM163.351 59L160.519 51.144H162.935L164.247 55.448L165.815 51.144H167.575L169.159 55.448L170.455 51.144H172.887L170.055 59H168.279L166.695 54.696L165.095 59H163.351ZM181.025 54.808C181.025 54.984 181.009 55.352 180.977 55.608H175.137C175.297 56.632 176.081 57.288 177.137 57.288C178.017 57.288 178.577 56.904 178.705 56.36H180.913C180.657 58.056 179.169 59.16 177.201 59.16C174.881 59.16 173.073 57.352 173.073 55.032C173.073 52.744 174.865 50.984 177.153 50.984C179.281 50.984 181.025 52.648 181.025 54.808ZM175.249 54.168H178.673C178.609 53.368 177.889 52.808 177.057 52.808C176.193 52.808 175.521 53.24 175.249 54.168ZM191.358 51.144H193.614V59H191.358V57.88C190.814 58.696 189.966 59.16 188.862 59.16C186.83 59.16 185.214 57.32 185.214 55.064C185.214 52.808 186.83 50.984 188.862 50.984C189.966 50.984 190.814 51.448 191.358 52.264V51.144ZM189.39 57C190.494 57 191.358 56.168 191.358 55.064C191.358 53.976 190.494 53.128 189.39 53.128C188.302 53.128 187.422 53.992 187.422 55.064C187.422 56.152 188.302 57 189.39 57ZM199.479 50.984C199.719 50.984 199.975 51.032 200.231 51.08V53.128C199.959 53.064 199.687 53.016 199.415 53.016C198.327 53.016 197.447 53.672 197.447 55.128V59H195.191V51.144H197.447V52.04C197.911 51.368 198.599 50.984 199.479 50.984ZM208.354 54.808C208.354 54.984 208.338 55.352 208.306 55.608H202.466C202.626 56.632 203.41 57.288 204.466 57.288C205.346 57.288 205.906 56.904 206.034 56.36H208.242C207.986 58.056 206.498 59.16 204.53 59.16C202.21 59.16 200.402 57.352 200.402 55.032C200.402 52.744 202.194 50.984 204.482 50.984C206.61 50.984 208.354 52.648 208.354 54.808ZM202.578 54.168H206.002C205.938 53.368 205.218 52.808 204.386 52.808C203.522 52.808 202.85 53.24 202.578 54.168ZM216.062 59.16C214.014 59.16 212.59 58.12 212.43 56.344H214.59C214.638 56.872 215.198 57.224 215.95 57.224C216.622 57.224 217.006 57 217.006 56.632C217.006 55.336 212.59 56.488 212.59 53.56C212.59 52.104 213.774 50.984 215.71 50.984C217.406 50.984 218.926 51.864 219.118 53.608H216.846C216.814 53.208 216.382 52.856 215.662 52.856C215.15 52.856 214.766 53.032 214.766 53.4C214.766 54.616 219.198 53.336 219.198 56.616C219.198 58.056 217.838 59.16 216.062 59.16ZM222.304 59L219.472 51.144H221.888L223.2 55.448L224.768 51.144H226.528L228.112 55.448L229.408 51.144H231.84L229.008 59H227.232L225.648 54.696L224.048 59H222.304ZM233.889 47.336C234.641 47.336 235.265 47.96 235.265 48.696C235.265 49.448 234.641 50.072 233.889 50.072C233.137 50.072 232.513 49.448 232.513 48.696C232.513 47.96 233.137 47.336 233.889 47.336ZM232.769 51.144H235.025V59H232.769V51.144ZM241.012 50.984C243.028 50.984 244.244 52.328 244.244 54.552V59H241.988V54.84C241.988 53.816 241.364 53.144 240.436 53.144C239.492 53.144 238.884 53.816 238.884 54.84V59H236.628V51.144H238.884V52.168C239.38 51.416 240.116 50.984 241.012 50.984ZM251.639 51.128H253.895V58.664C253.895 60.888 252.103 62.232 249.831 62.232C248.375 62.232 245.879 61.704 245.735 59.304H247.991C248.055 60.008 248.855 60.36 249.751 60.36C250.727 60.36 251.639 59.72 251.639 58.76V57.624C251.095 58.424 250.247 58.856 249.143 58.856C247.111 58.856 245.495 57.08 245.495 54.92C245.495 52.744 247.111 50.984 249.143 50.984C250.247 50.984 251.095 51.416 251.639 52.216V51.128ZM249.671 56.776C250.775 56.776 251.639 55.976 251.639 54.92C251.639 53.864 250.775 53.048 249.671 53.048C248.583 53.048 247.703 53.88 247.703 54.92C247.703 55.96 248.583 56.776 249.671 56.776ZM256.592 47.336C257.344 47.336 257.968 47.96 257.968 48.696C257.968 49.448 257.344 50.072 256.592 50.072C255.84 50.072 255.216 49.448 255.216 48.696C255.216 47.96 255.84 47.336 256.592 47.336ZM255.472 51.144H257.728V59H255.472V51.144ZM263.715 50.984C265.731 50.984 266.947 52.328 266.947 54.552V59H264.691V54.84C264.691 53.816 264.067 53.144 263.139 53.144C262.195 53.144 261.587 53.816 261.587 54.84V59H259.331V51.144H261.587V52.168C262.083 51.416 262.819 50.984 263.715 50.984ZM274.342 51.128H276.598V58.664C276.598 60.888 274.806 62.232 272.534 62.232C271.078 62.232 268.582 61.704 268.438 59.304H270.694C270.758 60.008 271.558 60.36 272.454 60.36C273.43 60.36 274.342 59.72 274.342 58.76V57.624C273.798 58.424 272.95 58.856 271.846 58.856C269.814 58.856 268.198 57.08 268.198 54.92C268.198 52.744 269.814 50.984 271.846 50.984C272.95 50.984 273.798 51.416 274.342 52.216V51.128ZM272.374 56.776C273.478 56.776 274.342 55.976 274.342 54.92C274.342 53.864 273.478 53.048 272.374 53.048C271.286 53.048 270.406 53.88 270.406 54.92C270.406 55.96 271.286 56.776 272.374 56.776ZM286.177 50.984C288.209 50.984 289.825 52.808 289.825 55.064C289.825 57.32 288.209 59.16 286.177 59.16C285.089 59.16 284.241 58.712 283.697 57.896V59H281.441V47.8H283.697V52.248C284.241 51.432 285.089 50.984 286.177 50.984ZM285.665 57C286.753 57 287.617 56.152 287.617 55.064C287.617 53.992 286.753 53.128 285.665 53.128C284.561 53.128 283.697 53.976 283.697 55.064C283.697 56.168 284.561 57 285.665 57ZM295.861 51.144H298.293L293.924 61.608H291.509L292.965 58.36L289.941 51.144H292.373L294.117 55.736L295.861 51.144ZM93.808 77.288H91.872V79.768C91.872 80.616 92.448 80.984 93.232 80.984C93.424 80.984 93.632 80.968 93.808 80.92V83C93.504 83.08 93.04 83.128 92.72 83.128C90.864 83.128 89.616 81.912 89.616 79.8V77.288H88.16V75.144H89.616V73.08H91.872V75.144H93.808V77.288ZM98.4503 74.984C100.754 74.984 102.53 76.744 102.53 79.08C102.53 81.416 100.754 83.16 98.4503 83.16C96.1303 83.16 94.3703 81.416 94.3703 79.08C94.3703 76.744 96.1303 74.984 98.4503 74.984ZM98.4503 77.144C97.3783 77.144 96.5783 77.96 96.5783 79.08C96.5783 80.168 97.3783 81 98.4503 81C99.5063 81 100.322 80.168 100.322 79.08C100.322 77.96 99.5063 77.144 98.4503 77.144ZM109.514 71.8H111.77V83H109.514V81.88C108.97 82.696 108.122 83.16 107.018 83.16C104.986 83.16 103.37 81.32 103.37 79.064C103.37 76.808 104.986 74.984 107.018 74.984C108.122 74.984 108.97 75.448 109.514 76.264V71.8ZM107.546 81C108.65 81 109.514 80.168 109.514 79.064C109.514 77.976 108.65 77.128 107.546 77.128C106.458 77.128 105.578 77.992 105.578 79.064C105.578 80.152 106.458 81 107.546 81ZM119.077 75.144H121.333V83H119.077V81.88C118.533 82.696 117.685 83.16 116.581 83.16C114.549 83.16 112.933 81.32 112.933 79.064C112.933 76.808 114.549 74.984 116.581 74.984C117.685 74.984 118.533 75.448 119.077 76.264V75.144ZM117.109 81C118.213 81 119.077 80.168 119.077 79.064C119.077 77.976 118.213 77.128 117.109 77.128C116.021 77.128 115.141 77.992 115.141 79.064C115.141 80.152 116.021 81 117.109 81ZM128.157 75.144H130.589L126.221 85.608H123.805L125.261 82.36L122.237 75.144H124.669L126.413 79.736L128.157 75.144ZM140.592 75.144H142.848V83H140.592V81.88C140.048 82.696 139.2 83.16 138.096 83.16C136.064 83.16 134.448 81.32 134.448 79.064C134.448 76.808 136.064 74.984 138.096 74.984C139.2 74.984 140.048 75.448 140.592 76.264V75.144ZM138.624 81C139.728 81 140.592 80.168 140.592 79.064C140.592 77.976 139.728 77.128 138.624 77.128C137.536 77.128 136.656 77.992 136.656 79.064C136.656 80.152 137.536 81 138.624 81ZM149.433 77.288H147.497V79.768C147.497 80.616 148.073 80.984 148.857 80.984C149.049 80.984 149.257 80.968 149.433 80.92V83C149.129 83.08 148.665 83.128 148.345 83.128C146.489 83.128 145.241 81.912 145.241 79.8V77.288H143.785V75.144H145.241V73.08H147.497V75.144H149.433V77.288ZM158.565 71.8V83H156.213V75.048L153.717 76.968V74.136L156.981 71.8H158.565ZM160.11 83V81.304L163.71 77.784C164.894 76.632 165.454 76.136 165.454 75.256C165.454 74.504 164.782 73.944 163.934 73.944C162.83 73.944 162.254 74.76 162.318 75.96H159.934C159.822 73.4 161.55 71.64 163.982 71.64C166.254 71.64 167.886 73.128 167.886 75.192C167.886 76.728 166.862 77.928 165.39 79.288L163.982 80.696H167.918V83H160.11ZM177.222 73.544C176.454 73.544 175.862 73.912 175.862 74.76V75.144H177.798V77.288H175.862V83H173.606V77.288H172.15V75.144H173.606V74.712C173.606 72.616 174.87 71.4 176.71 71.4C177.046 71.4 177.494 71.448 177.798 71.528V73.608C177.638 73.56 177.414 73.544 177.222 73.544ZM182.232 74.984C184.536 74.984 186.312 76.744 186.312 79.08C186.312 81.416 184.536 83.16 182.232 83.16C179.912 83.16 178.152 81.416 178.152 79.08C178.152 76.744 179.912 74.984 182.232 74.984ZM182.232 77.144C181.16 77.144 180.36 77.96 180.36 79.08C180.36 80.168 181.16 81 182.232 81C183.288 81 184.104 80.168 184.104 79.08C184.104 77.96 183.288 77.144 182.232 77.144ZM191.869 74.984C192.109 74.984 192.365 75.032 192.621 75.08V77.128C192.349 77.064 192.077 77.016 191.805 77.016C190.717 77.016 189.837 77.672 189.837 79.128V83H187.581V75.144H189.837V76.04C190.301 75.368 190.989 74.984 191.869 74.984ZM202.22 75.144H204.652L200.284 85.608H197.868L199.324 82.36L196.3 75.144H198.732L200.476 79.736L202.22 75.144ZM208.857 74.984C211.161 74.984 212.937 76.744 212.937 79.08C212.937 81.416 211.161 83.16 208.857 83.16C206.537 83.16 204.777 81.416 204.777 79.08C204.777 76.744 206.537 74.984 208.857 74.984ZM208.857 77.144C207.785 77.144 206.985 77.96 206.985 79.08C206.985 80.168 207.785 81 208.857 81C209.913 81 210.729 80.168 210.729 79.08C210.729 77.96 209.913 77.144 208.857 77.144ZM219.566 75.144H221.822V83H219.566V81.96C219.086 82.728 218.35 83.16 217.438 83.16C215.422 83.16 214.206 81.8 214.206 79.576V75.144H216.462V79.288C216.462 80.328 217.07 81 218.014 81C218.942 81 219.566 80.328 219.566 79.288V75.144ZM227.697 74.984C227.937 74.984 228.193 75.032 228.449 75.08V77.128C228.177 77.064 227.905 77.016 227.633 77.016C226.545 77.016 225.665 77.672 225.665 79.128V83H223.409V75.144H225.665V76.04C226.129 75.368 226.817 74.984 227.697 74.984ZM241.123 71.8V74.072H237.843V83H235.475V74.072H232.211V71.8H241.123ZM244.2 74.984C246.504 74.984 248.28 76.744 248.28 79.08C248.28 81.416 246.504 83.16 244.2 83.16C241.88 83.16 240.12 81.416 240.12 79.08C240.12 76.744 241.88 74.984 244.2 74.984ZM244.2 77.144C243.128 77.144 242.328 77.96 242.328 79.08C242.328 80.168 243.128 81 244.2 81C245.256 81 246.072 80.168 246.072 79.08C246.072 77.96 245.256 77.144 244.2 77.144ZM254.386 77.288H252.45V79.768C252.45 80.616 253.026 80.984 253.81 80.984C254.002 80.984 254.21 80.968 254.386 80.92V83C254.082 83.08 253.618 83.128 253.298 83.128C251.442 83.128 250.194 81.912 250.194 79.8V77.288H248.738V75.144H250.194V73.08H252.45V75.144H254.386V77.288ZM261.092 75.144H263.348V83H261.092V81.88C260.548 82.696 259.7 83.16 258.596 83.16C256.564 83.16 254.948 81.32 254.948 79.064C254.948 76.808 256.564 74.984 258.596 74.984C259.7 74.984 260.548 75.448 261.092 76.264V75.144ZM259.124 81C260.228 81 261.092 80.168 261.092 79.064C261.092 77.976 260.228 77.128 259.124 77.128C258.036 77.128 257.156 77.992 257.156 79.064C257.156 80.152 258.036 81 259.124 81ZM267.181 71.8V83H264.925V71.8H267.181ZM277.474 83.16C274.226 83.16 271.794 80.68 271.794 77.4C271.794 74.12 274.226 71.64 277.474 71.64C280.114 71.64 282.482 73.384 282.802 75.736H280.162C279.858 74.696 278.77 73.944 277.474 73.944C275.634 73.944 274.226 75.432 274.226 77.4C274.226 79.368 275.634 80.856 277.474 80.856C278.786 80.856 279.89 80.04 280.178 78.92H282.834C282.402 81.416 280.21 83.16 277.474 83.16ZM289.889 75.144H292.145V83H289.889V81.88C289.345 82.696 288.497 83.16 287.393 83.16C285.361 83.16 283.745 81.32 283.745 79.064C283.745 76.808 285.361 74.984 287.393 74.984C288.497 74.984 289.345 75.448 289.889 76.264V75.144ZM287.921 81C289.025 81 289.889 80.168 289.889 79.064C289.889 77.976 289.025 77.128 287.921 77.128C286.833 77.128 285.953 77.992 285.953 79.064C285.953 80.152 286.833 81 287.921 81ZM298.01 74.984C298.25 74.984 298.506 75.032 298.762 75.08V77.128C298.49 77.064 298.218 77.016 297.946 77.016C296.858 77.016 295.978 77.672 295.978 79.128V83H293.722V75.144H295.978V76.04C296.442 75.368 297.13 74.984 298.01 74.984ZM306.885 78.808C306.885 78.984 306.869 79.352 306.837 79.608H300.997C301.157 80.632 301.941 81.288 302.997 81.288C303.877 81.288 304.437 80.904 304.565 80.36H306.773C306.517 82.056 305.029 83.16 303.061 83.16C300.741 83.16 298.933 81.352 298.933 79.032C298.933 76.744 300.725 74.984 303.013 74.984C305.141 74.984 306.885 76.648 306.885 78.808ZM301.109 78.168H304.533C304.469 77.368 303.749 76.808 302.917 76.808C302.053 76.808 301.381 77.24 301.109 78.168ZM91.984 107.16C89.936 107.16 88.512 106.12 88.352 104.344H90.512C90.56 104.872 91.12 105.224 91.872 105.224C92.544 105.224 92.928 105 92.928 104.632C92.928 103.336 88.512 104.488 88.512 101.56C88.512 100.104 89.696 98.984 91.632 98.984C93.328 98.984 94.848 99.864 95.04 101.608H92.768C92.736 101.208 92.304 100.856 91.584 100.856C91.072 100.856 90.688 101.032 90.688 101.4C90.688 102.616 95.12 101.336 95.12 104.616C95.12 106.056 93.76 107.16 91.984 107.16ZM103.822 102.808C103.822 102.984 103.806 103.352 103.774 103.608H97.9343C98.0943 104.632 98.8783 105.288 99.9343 105.288C100.814 105.288 101.374 104.904 101.502 104.36H103.71C103.454 106.056 101.966 107.16 99.9983 107.16C97.6783 107.16 95.8703 105.352 95.8703 103.032C95.8703 100.744 97.6623 98.984 99.9503 98.984C102.078 98.984 103.822 100.648 103.822 102.808ZM98.0463 102.168H101.47C101.406 101.368 100.686 100.808 99.8543 100.808C98.9903 100.808 98.3183 101.24 98.0463 102.168ZM109.369 98.984C109.609 98.984 109.865 99.032 110.121 99.08V101.128C109.849 101.064 109.577 101.016 109.305 101.016C108.217 101.016 107.337 101.672 107.337 103.128V107H105.081V99.144H107.337V100.04C107.801 99.368 108.489 98.984 109.369 98.984ZM118.966 99.144L115.718 107H113.798L110.534 99.144H112.982L114.758 103.928L116.502 99.144H118.966ZM121.014 95.336C121.766 95.336 122.39 95.96 122.39 96.696C122.39 97.448 121.766 98.072 121.014 98.072C120.262 98.072 119.638 97.448 119.638 96.696C119.638 95.96 120.262 95.336 121.014 95.336ZM119.894 99.144H122.15V107H119.894V99.144ZM127.497 107.16C125.177 107.16 123.417 105.416 123.417 103.08C123.417 100.744 125.177 98.984 127.497 98.984C129.465 98.984 131.129 100.328 131.337 102.136H129.049C128.889 101.56 128.249 101.144 127.497 101.144C126.425 101.144 125.625 101.96 125.625 103.08C125.625 104.168 126.425 105 127.497 105C128.249 105 128.905 104.552 129.065 103.944H131.353C131.177 105.816 129.497 107.16 127.497 107.16ZM140.072 102.808C140.072 102.984 140.056 103.352 140.024 103.608H134.184C134.344 104.632 135.128 105.288 136.184 105.288C137.064 105.288 137.624 104.904 137.752 104.36H139.96C139.704 106.056 138.216 107.16 136.248 107.16C133.928 107.16 132.12 105.352 132.12 103.032C132.12 100.744 133.912 98.984 136.2 98.984C138.328 98.984 140.072 100.648 140.072 102.808ZM134.296 102.168H137.72C137.656 101.368 136.936 100.808 136.104 100.808C135.24 100.808 134.568 101.24 134.296 102.168ZM146.757 107L143.925 99.144H146.341L147.653 103.448L149.221 99.144H150.981L152.565 103.448L153.861 99.144H156.293L153.461 107H151.685L150.101 102.696L148.501 107H146.757ZM158.342 95.336C159.094 95.336 159.718 95.96 159.718 96.696C159.718 97.448 159.094 98.072 158.342 98.072C157.59 98.072 156.966 97.448 156.966 96.696C156.966 95.96 157.59 95.336 158.342 95.336ZM157.222 99.144H159.478V107H157.222V99.144ZM166.089 101.288H164.153V103.768C164.153 104.616 164.729 104.984 165.513 104.984C165.705 104.984 165.913 104.968 166.089 104.92V107C165.785 107.08 165.321 107.128 165.001 107.128C163.145 107.128 161.897 105.912 161.897 103.8V101.288H160.441V99.144H161.897V97.08H164.153V99.144H166.089V101.288ZM171.715 98.984C173.731 98.984 174.947 100.328 174.947 102.552V107H172.691V102.84C172.691 101.816 172.067 101.144 171.139 101.144C170.195 101.144 169.587 101.816 169.587 102.84V107H167.331V95.8H169.587V100.168C170.083 99.416 170.819 98.984 171.715 98.984ZM185.608 99.144H187.864V107H185.608V105.88C185.064 106.696 184.216 107.16 183.112 107.16C181.08 107.16 179.464 105.32 179.464 103.064C179.464 100.808 181.08 98.984 183.112 98.984C184.216 98.984 185.064 99.448 185.608 100.264V99.144ZM183.64 105C184.744 105 185.608 104.168 185.608 103.064C185.608 101.976 184.744 101.128 183.64 101.128C182.552 101.128 181.672 101.992 181.672 103.064C181.672 104.152 182.552 105 183.64 105ZM197.09 98.984C199.106 98.984 200.322 100.328 200.322 102.552V107H198.066V102.84C198.066 101.816 197.442 101.144 196.514 101.144C195.57 101.144 194.962 101.816 194.962 102.84V107H192.706V95.8H194.962V100.168C195.458 99.416 196.194 98.984 197.09 98.984ZM207.717 99.144H209.973V107H207.717V105.88C207.173 106.696 206.325 107.16 205.221 107.16C203.189 107.16 201.573 105.32 201.573 103.064C201.573 100.808 203.189 98.984 205.221 98.984C206.325 98.984 207.173 99.448 207.717 100.264V99.144ZM205.749 105C206.853 105 207.717 104.168 207.717 103.064C207.717 101.976 206.853 101.128 205.749 101.128C204.661 101.128 203.781 101.992 203.781 103.064C203.781 104.152 204.661 105 205.749 105ZM212.67 95.336C213.422 95.336 214.046 95.96 214.046 96.696C214.046 97.448 213.422 98.072 212.67 98.072C211.918 98.072 211.294 97.448 211.294 96.696C211.294 95.96 211.918 95.336 212.67 95.336ZM211.55 99.144H213.806V107H211.55V99.144ZM219.697 98.984C219.937 98.984 220.193 99.032 220.449 99.08V101.128C220.177 101.064 219.905 101.016 219.633 101.016C218.545 101.016 217.665 101.672 217.665 103.128V107H215.409V99.144H217.665V100.04C218.129 99.368 218.817 98.984 219.697 98.984ZM224.7 107.16C222.38 107.16 220.62 105.416 220.62 103.08C220.62 100.744 222.38 98.984 224.7 98.984C226.668 98.984 228.332 100.328 228.54 102.136H226.252C226.092 101.56 225.452 101.144 224.7 101.144C223.628 101.144 222.828 101.96 222.828 103.08C222.828 104.168 223.628 105 224.7 105C225.452 105 226.108 104.552 226.268 103.944H228.556C228.38 105.816 226.7 107.16 224.7 107.16ZM235.176 99.144H237.432V107H235.176V105.96C234.696 106.728 233.96 107.16 233.048 107.16C231.032 107.16 229.816 105.8 229.816 103.576V99.144H232.072V103.288C232.072 104.328 232.68 105 233.624 105C234.552 105 235.176 104.328 235.176 103.288V99.144ZM244.027 101.288H242.091V103.768C242.091 104.616 242.667 104.984 243.451 104.984C243.643 104.984 243.851 104.968 244.027 104.92V107C243.723 107.08 243.259 107.128 242.939 107.128C241.083 107.128 239.835 105.912 239.835 103.8V101.288H238.379V99.144H239.835V97.08H242.091V99.144H244.027V101.288ZM245.541 95.8H247.941L247.877 103.528H245.621L245.541 95.8ZM246.741 107.16C245.925 107.16 245.285 106.52 245.285 105.72C245.285 104.92 245.925 104.296 246.741 104.296C247.573 104.296 248.213 104.92 248.213 105.72C248.213 106.52 247.573 107.16 246.741 107.16Z" fill="#2E2F33"/>
</svg>
