<svg class="svg-instagram" xmlns="http://www.w3.org/2000/svg" width="313" height="80" viewBox="0 0 313 80" fill="none"><rect width="313" height="80" rx="40" fill="currentcolor"></rect><rect class="rect-insta" x="16" y="16" width="48" height="48" rx="24" fill="currentColor"></rect><path class="insta" d="M39.5 34.6094C42.4531 34.6094 44.8906 37.0469 44.8906 40C44.8906 43 42.4531 45.3906 39.5 45.3906C36.5 45.3906 34.1094 43 34.1094 40C34.1094 37.0469 36.5 34.6094 39.5 34.6094ZM39.5 43.5156C41.4219 43.5156 42.9688 41.9688 42.9688 40C42.9688 38.0781 41.4219 36.5312 39.5 36.5312C37.5312 36.5312 35.9844 38.0781 35.9844 40C35.9844 41.9688 37.5781 43.5156 39.5 43.5156ZM46.3438 34.4219C46.3438 33.7188 45.7812 33.1562 45.0781 33.1562C44.375 33.1562 43.8125 33.7188 43.8125 34.4219C43.8125 35.125 44.375 35.6875 45.0781 35.6875C45.7812 35.6875 46.3438 35.125 46.3438 34.4219ZM49.9062 35.6875C50 37.4219 50 42.625 49.9062 44.3594C49.8125 46.0469 49.4375 47.5 48.2188 48.7656C47 49.9844 45.5 50.3594 43.8125 50.4531C42.0781 50.5469 36.875 50.5469 35.1406 50.4531C33.4531 50.3594 32 49.9844 30.7344 48.7656C29.5156 47.5 29.1406 46.0469 29.0469 44.3594C28.9531 42.625 28.9531 37.4219 29.0469 35.6875C29.1406 34 29.5156 32.5 30.7344 31.2812C32 30.0625 33.4531 29.6875 35.1406 29.5938C36.875 29.5 42.0781 29.5 43.8125 29.5938C45.5 29.6875 47 30.0625 48.2188 31.2812C49.4375 32.5 49.8125 34 49.9062 35.6875ZM47.6562 46.1875C48.2188 44.8281 48.0781 41.5469 48.0781 40C48.0781 38.5 48.2188 35.2188 47.6562 33.8125C47.2812 32.9219 46.5781 32.1719 45.6875 31.8438C44.2812 31.2812 41 31.4219 39.5 31.4219C37.9531 31.4219 34.6719 31.2812 33.3125 31.8438C32.375 32.2188 31.6719 32.9219 31.2969 33.8125C30.7344 35.2188 30.875 38.5 30.875 40C30.875 41.5469 30.7344 44.8281 31.2969 46.1875C31.6719 47.125 32.375 47.8281 33.3125 48.2031C34.6719 48.7656 37.9531 48.625 39.5 48.625C41 48.625 44.2812 48.7656 45.6875 48.2031C46.5781 47.8281 47.3281 47.125 47.6562 46.1875Z" fill="currentColor"></path><path class="path-tag" d="M85.2 35.248H87.888V40.528C87.888 41.992 88.128 42.472 89.064 42.472C90.024 42.472 90.672 41.008 90.672 39.112C90.672 35.224 87.864 32.92 83.16 32.92C78.984 32.92 75.864 36.016 75.864 40.168C75.864 44.224 78.912 47.272 82.944 47.272C84.36 47.272 85.8 46.792 86.184 46.168H89.856C88.776 48.376 85.992 49.744 82.944 49.744C77.496 49.744 73.2 45.64 73.2 40.168C73.2 34.6 77.568 30.448 83.16 30.448C89.544 30.448 93.336 33.688 93.336 39.112C93.336 42.688 91.512 44.968 88.896 44.968C87.432 44.968 86.4 44.488 85.824 43.552C85.056 44.488 83.952 45.04 82.608 45.04C80.088 45.04 78.096 42.832 78.096 40.048C78.096 37.24 80.088 35.056 82.608 35.056C83.688 35.056 84.576 35.488 85.2 36.232V35.248ZM82.992 42.352C84.312 42.352 85.2 41.44 85.2 40.048C85.2 38.632 84.312 37.72 82.992 37.72C81.744 37.72 80.76 38.728 80.76 40.048C80.76 41.344 81.768 42.352 82.992 42.352ZM104.459 34.192H107.843V45.496C107.843 48.832 105.155 50.848 101.747 50.848C99.5629 50.848 95.8189 50.056 95.6029 46.456H98.9869C99.0829 47.512 100.283 48.04 101.627 48.04C103.091 48.04 104.459 47.08 104.459 45.64V43.936C103.643 45.136 102.371 45.784 100.715 45.784C97.6669 45.784 95.2429 43.12 95.2429 39.88C95.2429 36.616 97.6669 33.976 100.715 33.976C102.371 33.976 103.643 34.624 104.459 35.824V34.192ZM101.507 42.664C103.163 42.664 104.459 41.464 104.459 39.88C104.459 38.296 103.163 37.072 101.507 37.072C99.8749 37.072 98.5549 38.32 98.5549 39.88C98.5549 41.44 99.8749 42.664 101.507 42.664ZM116.64 33.976C117 33.976 117.384 34.048 117.768 34.12V37.192C117.36 37.096 116.952 37.024 116.544 37.024C114.912 37.024 113.592 38.008 113.592 40.192V46H110.208V34.216H113.592V35.56C114.288 34.552 115.32 33.976 116.64 33.976ZM124.144 33.976C127.6 33.976 130.264 36.616 130.264 40.12C130.264 43.624 127.6 46.24 124.144 46.24C120.664 46.24 118.024 43.624 118.024 40.12C118.024 36.616 120.664 33.976 124.144 33.976ZM124.144 37.216C122.536 37.216 121.336 38.44 121.336 40.12C121.336 41.752 122.536 43 124.144 43C125.728 43 126.952 41.752 126.952 40.12C126.952 38.44 125.728 37.216 124.144 37.216ZM137.644 33.976C141.1 33.976 143.764 36.616 143.764 40.12C143.764 43.624 141.1 46.24 137.644 46.24C134.164 46.24 131.524 43.624 131.524 40.12C131.524 36.616 134.164 33.976 137.644 33.976ZM137.644 37.216C136.036 37.216 134.836 38.44 134.836 40.12C134.836 41.752 136.036 43 137.644 43C139.228 43 140.452 41.752 140.452 40.12C140.452 38.44 139.228 37.216 137.644 37.216ZM159.301 33.976C162.109 33.976 164.125 35.824 164.125 38.68V46H160.717V39.472C160.717 38.08 159.925 37.216 158.701 37.216C157.573 37.216 156.565 37.96 156.565 39.472V46H153.181V39.472C153.181 38.08 152.389 37.216 151.141 37.216C150.037 37.216 149.053 37.936 149.053 39.472V46H145.669V34.216H149.053V35.632C149.941 34.336 151.333 33.976 152.413 33.976C153.949 33.976 155.029 34.48 155.749 35.704C156.445 34.696 157.813 33.976 159.301 33.976ZM172.121 46.24C168.641 46.24 166.001 43.624 166.001 40.12C166.001 36.616 168.641 33.976 172.121 33.976C175.073 33.976 177.569 35.992 177.881 38.704H174.449C174.209 37.84 173.249 37.216 172.121 37.216C170.513 37.216 169.313 38.44 169.313 40.12C169.313 41.752 170.513 43 172.121 43C173.249 43 174.233 42.328 174.473 41.416H177.905C177.641 44.224 175.121 46.24 172.121 46.24ZM183.037 29.2V46H179.653V29.2H183.037ZM193.482 34.216H196.866V46H193.482V44.44C192.762 45.592 191.658 46.24 190.29 46.24C187.266 46.24 185.442 44.2 185.442 40.864V34.216H188.826V40.432C188.826 41.992 189.738 43 191.154 43C192.546 43 193.482 41.992 193.482 40.432V34.216ZM206.351 33.976C209.399 33.976 211.823 36.712 211.823 40.096C211.823 43.48 209.399 46.24 206.351 46.24C204.719 46.24 203.447 45.568 202.631 44.344V46H199.247V29.2H202.631V35.872C203.447 34.648 204.719 33.976 206.351 33.976ZM205.583 43C207.215 43 208.511 41.728 208.511 40.096C208.511 38.488 207.215 37.192 205.583 37.192C203.927 37.192 202.631 38.464 202.631 40.096C202.631 41.752 203.927 43 205.583 43ZM226.548 39.328V42.544H224.772V46H221.22V42.544H212.988V40.144L218.82 29.2H222.852L217.452 39.328H221.22V35.368H224.772V39.328H226.548ZM236.975 29.2H240.359V46H236.975V44.32C236.159 45.544 234.887 46.24 233.23 46.24C230.183 46.24 227.759 43.48 227.759 40.096C227.759 36.712 230.183 33.976 233.23 33.976C234.887 33.976 236.159 34.672 236.975 35.896V29.2ZM234.023 43C235.679 43 236.975 41.752 236.975 40.096C236.975 38.464 235.679 37.192 234.023 37.192C232.391 37.192 231.071 38.488 231.071 40.096C231.071 41.728 232.391 43 234.023 43ZM248.222 33.976C251.678 33.976 254.342 36.616 254.342 40.12C254.342 43.624 251.678 46.24 248.222 46.24C244.742 46.24 242.102 43.624 242.102 40.12C242.102 36.616 244.742 33.976 248.222 33.976ZM248.222 37.216C246.614 37.216 245.414 38.44 245.414 40.12C245.414 41.752 246.614 43 248.222 43C249.806 43 251.03 41.752 251.03 40.12C251.03 38.44 249.806 37.216 248.222 37.216ZM264.818 34.192H268.202V45.496C268.202 48.832 265.514 50.848 262.106 50.848C259.922 50.848 256.178 50.056 255.962 46.456H259.346C259.442 47.512 260.642 48.04 261.986 48.04C263.45 48.04 264.818 47.08 264.818 45.64V43.936C264.002 45.136 262.73 45.784 261.074 45.784C258.026 45.784 255.602 43.12 255.602 39.88C255.602 36.616 258.026 33.976 261.074 33.976C262.73 33.976 264.002 34.624 264.818 35.824V34.192ZM261.866 42.664C263.522 42.664 264.818 41.464 264.818 39.88C264.818 38.296 263.522 37.072 261.866 37.072C260.234 37.072 258.914 38.32 258.914 39.88C258.914 41.44 260.234 42.664 261.866 42.664ZM275.343 46.24C272.271 46.24 270.135 44.68 269.895 42.016H273.135C273.207 42.808 274.047 43.336 275.175 43.336C276.183 43.336 276.759 43 276.759 42.448C276.759 40.504 270.135 42.232 270.135 37.84C270.135 35.656 271.911 33.976 274.815 33.976C277.359 33.976 279.639 35.296 279.927 37.912H276.519C276.471 37.312 275.823 36.784 274.743 36.784C273.975 36.784 273.399 37.048 273.399 37.6C273.399 39.424 280.047 37.504 280.047 42.424C280.047 44.584 278.007 46.24 275.343 46.24Z" fill="currentColor"></path></svg>