<svg class="svg-price" xmlns="http://www.w3.org/2000/svg" width="420" height="420" viewBox="0 0 420 420" fill="none"><circle cx="210" cy="210" r="210" fill="#F3E6BC"></circle><g clip-path="url(#clip0_915_702)"><path d="M111.37 67.71C114.61 72.1 113.67 77.81 109.16 81.13C104.49 84.57 98.5001 83.66 95.0801 79.02C91.6401 74.35 92.5301 68.34 97.2001 64.9C101.3 61.88 106.74 62.18 109.25 64.96L104.4 68.53C103.24 67.75 101.6 68.09 100.27 69.07C98.1301 70.65 97.8001 73.5 99.4801 75.78C101.14 78.03 103.95 78.54 106.09 76.96C108.19 75.41 108.49 73.7 107.96 72.66L104.13 75.48L101.6 72.05L109.87 65.95C110.39 66.47 110.99 67.18 111.37 67.7V67.71Z" fill="#2E2F33"></path><path d="M126.84 69.4301L120.04 65.3301L119.09 65.8701L122.54 71.8901L117.92 74.5301L108.18 57.5401L114.96 53.6601C117.85 52.0001 121.94 52.9501 123.67 55.9601C124.81 57.9501 124.94 59.9801 124.15 61.6901L132.43 66.2401L126.84 69.4401V69.4301ZM116.82 61.9101L118.5 60.9501C119.25 60.5201 119.55 59.5701 119.15 58.8701C118.75 58.1701 117.78 57.9401 117.03 58.3801L115.35 59.3401L116.83 61.9201L116.82 61.9101Z" fill="#2E2F33"></path><path d="M145.49 49.8099C147.82 55.0899 145.62 60.7399 140.32 63.0699C135.02 65.4099 129.37 63.2199 127.04 57.9399C124.7 52.6399 126.88 46.9599 132.19 44.6299C137.49 42.2899 143.15 44.5099 145.49 49.8099ZM132.04 55.7399C133.17 58.2999 135.8 59.4099 138.23 58.3299C140.66 57.2499 141.62 54.5699 140.49 52.0099C139.35 49.4199 136.71 48.2899 134.28 49.3599C131.85 50.4299 130.9 53.1399 132.04 55.7299V55.7399Z" fill="#2E2F33"></path><path d="M166.76 43.3799C168.39 48.9099 165.5 54.2299 159.94 55.8799C154.38 57.5199 149.06 54.6299 147.42 49.0999C145.78 43.5399 148.66 38.1899 154.22 36.5499C159.78 34.9099 165.11 37.8299 166.75 43.3899L166.76 43.3799ZM152.66 47.5499C153.45 50.2399 155.92 51.6699 158.47 50.9099C161.02 50.1599 162.31 47.6099 161.52 44.9299C160.72 42.2199 158.24 40.7599 155.69 41.5099C153.14 42.2599 151.85 44.8299 152.65 47.5499H152.66Z" fill="#2E2F33"></path><path d="M167.68 33.07L174.1 32.09L180.7 43.01L184.12 30.56L189.49 29.74L192.46 49.12L187.2 49.93L185.79 40.71L183.36 50.52L179.6 51.1L174.51 42.45L175.92 51.67L170.66 52.48L167.69 33.1L167.68 33.07Z" fill="#2E2F33"></path><path d="M198.72 38.9399C198.81 33.1499 203.17 28.9099 208.96 28.9999C213.75 29.0799 218.06 32.3699 218.41 36.6299L212.5 36.5299C212.13 35.2099 210.66 34.1999 208.87 34.1699C206.21 34.1299 204.22 36.1899 204.17 39.0199C204.13 41.8199 206.05 43.9199 208.71 43.9699C210.47 43.9999 212 42.9299 212.42 41.4799L218.38 41.5799C217.63 46.0999 213.61 49.2299 208.62 49.1499C202.82 49.0599 198.61 44.6999 198.7 38.9299L198.72 38.9399Z" fill="#2E2F33"></path><path d="M227.11 30.37L225.43 44.78L233.8 45.76L233.21 50.82L219.55 49.22L221.83 29.75L227.12 30.37H227.11Z" fill="#2E2F33"></path><path d="M234.26 43.14L236.68 31.51L241.89 32.59L239.47 44.22C239.14 45.78 240.02 47.2 241.48 47.5C242.96 47.81 244.3 46.86 244.63 45.29L247.05 33.66L252.26 34.74L249.84 46.37C248.9 50.87 244.9 53.49 240.43 52.56C235.96 51.63 233.33 47.62 234.27 43.12L234.26 43.14Z" fill="#2E2F33"></path><path d="M255.75 35.71L263.06 38.03C266.48 39.11 268.42 42.34 267.55 45.09C267.07 46.61 265.64 47.86 264.14 48.06C265.77 49.13 266.47 51.27 265.78 53.46C264.8 56.56 261.22 58.01 257.94 56.97L249.83 54.4L255.76 35.72L255.75 35.71ZM259.02 51.96C259.79 52.21 260.64 51.77 260.88 50.99C261.13 50.22 260.71 49.38 259.97 49.14L257.33 48.3L256.43 51.13L259.02 51.95V51.96ZM260.55 45.1C261.24 45.32 261.97 44.99 262.17 44.35C262.37 43.71 261.97 43.02 261.28 42.8L259.28 42.16L258.55 44.46L260.55 45.1Z" fill="#2E2F33"></path><path d="M278.37 43.3401L284.2 46.2101L283.35 58.9401L293.29 50.7001L298.16 53.1001L289.49 70.6801L284.72 68.3301L288.85 59.9701L281.23 66.6101L277.81 64.9201L278.6 54.9101L274.47 63.2701L269.7 60.9201L278.37 43.3401Z" fill="#2E2F33"></path><path d="M311.93 62.03L309.17 66.32L303.05 62.38L301.93 64.12L307.39 67.64L304.63 71.93L299.17 68.41L297.96 70.29L304.08 74.23L301.32 78.52L290.73 71.7L301.34 55.22L311.93 62.04V62.03Z" fill="#2E2F33"></path><path d="M314.97 63.9099L320 68.0199L316.31 80.2299L327.85 74.4399L332.06 77.8799L319.65 93.0599L315.53 89.6899L321.43 82.4699L312.51 87.2299L309.56 84.8199L312.58 75.2399L306.68 82.4599L302.56 79.0899L314.97 63.9099Z" fill="#2E2F33"></path><path d="M334.74 80.6899L340.06 86.2199C342.55 88.7999 342.71 92.5699 340.64 94.5699C339.49 95.6799 337.64 96.0999 336.22 95.5599C337.14 97.2799 336.74 99.4899 335.09 101.08C332.75 103.33 328.92 102.9 326.53 100.42L320.62 94.2899L334.74 80.6899ZM329.87 96.5399C330.43 97.1199 331.38 97.1399 331.97 96.5799C332.55 96.0199 332.59 95.0899 332.05 94.5199L330.13 92.5199L327.99 94.5799L329.87 96.5399ZM334.49 91.2399C335 91.7599 335.79 91.8199 336.27 91.3499C336.75 90.8799 336.73 90.0899 336.23 89.5699L334.77 88.0599L333.04 89.7299L334.5 91.2399H334.49Z" fill="#2E2F33"></path><path d="M354.84 103.5L350.86 106.69L346.31 101.01L344.69 102.31L348.75 107.38L344.77 110.57L340.71 105.5L338.96 106.9L343.51 112.58L339.53 115.77L331.65 105.94L346.94 93.6799L354.82 103.51L354.84 103.5Z" fill="#2E2F33"></path><path d="M346.06 125.44L349.75 118.4L349.15 117.49L343.35 121.3L340.43 116.85L356.81 106.1L361.09 112.63C362.92 115.42 362.22 119.56 359.32 121.46C357.4 122.72 355.39 122.97 353.63 122.28L349.59 130.82L346.06 125.44ZM352.96 114.99L354.02 116.61C354.5 117.34 355.46 117.58 356.14 117.13C356.82 116.68 356.98 115.71 356.51 114.98L355.45 113.37L352.97 115L352.96 114.99Z" fill="#2E2F33"></path><path d="M355.25 127.33L357.7 131.99C356.61 132.56 356.39 133.76 357.05 135.02C357.66 136.18 358.46 136.68 359.21 136.29C361.17 135.26 355.19 127.52 361.53 124.18C364.68 122.52 368.34 123.95 370.19 127.46C372.63 132.09 370.59 135.54 367.42 137.21L364.85 132.33C365.85 131.83 366.3 130.81 365.67 129.62C365.2 128.73 364.62 128.4 363.97 128.74C362.06 129.74 368.13 137.53 361.66 140.93C358.44 142.63 354.6 141.1 352.62 137.34C350.57 133.45 351.68 129.2 355.25 127.32V127.33Z" fill="#2E2F33"></path><path d="M381.58 153.92L363.36 161.15L361.4 156.2L368.43 153.41L365.92 147.08L358.89 149.87L356.93 144.92L375.15 137.69L377.11 142.64L370.65 145.2L373.16 151.53L379.62 148.97L381.58 153.92Z" fill="#2E2F33"></path><path d="M383.99 162.2L365.26 167.95L363.7 162.87L382.44 157.12L384 162.21L383.99 162.2Z" fill="#2E2F33"></path><path d="M381.77 180.91C377.95 181.79 374.55 179.53 373.61 175.47L373.14 173.42L367.08 174.82L365.88 169.64L384.98 165.22L386.65 172.45C387.59 176.51 385.56 180.03 381.77 180.91ZM380.57 175.73C381.47 175.52 381.93 174.64 381.69 173.6L381.22 171.55L378.11 172.27L378.58 174.32C378.82 175.36 379.65 175.94 380.57 175.73Z" fill="#2E2F33"></path></g><path d="M70.4816 119.65C68.5616 119.65 67.2176 118.658 67.0576 116.978H68.7696C68.8336 117.666 69.5056 118.114 70.3856 118.114C71.2496 118.114 71.7616 117.746 71.7616 117.202C71.7616 115.522 67.2336 116.882 67.2336 113.906C67.2336 112.546 68.3696 111.506 70.1936 111.506C71.8096 111.506 73.2176 112.37 73.3936 113.954H71.6016C71.5216 113.426 70.9776 112.994 70.1616 112.994C69.4576 112.994 68.9616 113.298 68.9616 113.794C68.9616 115.378 73.5056 113.922 73.5056 117.186C73.5056 118.594 72.2096 119.65 70.4816 119.65ZM79.3644 113.362H77.3164V116.514C77.3164 117.506 77.9244 117.906 78.7884 117.906C78.9804 117.906 79.1884 117.89 79.3644 117.842V119.49C79.0924 119.554 78.6924 119.586 78.4044 119.586C76.6764 119.586 75.5244 118.53 75.5244 116.546V113.362H74.0364V111.666H75.5244V109.57H77.3164V111.666H79.3644V113.362ZM86.4629 111.666H88.2549V119.49H86.4629V118.114C85.9029 119.09 84.9429 119.65 83.6949 119.65C81.6149 119.65 79.9509 117.826 79.9509 115.57C79.9509 113.314 81.6149 111.506 83.6949 111.506C84.9429 111.506 85.9029 112.066 86.4629 113.042V111.666ZM84.0789 117.954C85.4389 117.954 86.4629 116.93 86.4629 115.57C86.4629 114.226 85.4389 113.202 84.0789 113.202C82.7509 113.202 81.7109 114.258 81.7109 115.57C81.7109 116.898 82.7509 117.954 84.0789 117.954ZM94.0357 111.506C94.2757 111.506 94.5317 111.554 94.7717 111.602V113.234C94.5157 113.17 94.2437 113.122 93.9877 113.122C92.8517 113.122 91.9237 113.906 91.9237 115.314V119.49H90.1477V111.666H91.9237V112.706C92.3877 111.954 93.1077 111.506 94.0357 111.506ZM100.724 113.362H98.6757V116.514C98.6757 117.506 99.2837 117.906 100.148 117.906C100.34 117.906 100.548 117.89 100.724 117.842V119.49C100.452 119.554 100.052 119.586 99.7637 119.586C98.0357 119.586 96.8837 118.53 96.8837 116.546V113.362H95.3957V111.666H96.8837V109.57H98.6757V111.666H100.724V113.362ZM103.028 108.034C103.652 108.034 104.18 108.562 104.18 109.17C104.18 109.81 103.652 110.322 103.028 110.322C102.404 110.322 101.892 109.81 101.892 109.17C101.892 108.562 102.404 108.034 103.028 108.034ZM102.132 111.666H103.908V119.49H102.132V111.666ZM109.932 111.506C111.932 111.506 113.18 112.85 113.18 115.026V119.49H111.388V115.25C111.388 114.018 110.636 113.218 109.5 113.218C108.332 113.218 107.564 114.018 107.564 115.25V119.49H105.788V111.666H107.564V112.898C108.06 112.018 108.892 111.506 109.932 111.506ZM121.166 111.65H122.958V119.202C122.958 121.394 121.246 122.754 118.974 122.754C117.406 122.754 115.15 122.098 115.054 119.906H116.83C116.878 120.77 117.806 121.266 118.926 121.266C120.158 121.266 121.166 120.466 121.166 119.266V117.922C120.606 118.882 119.646 119.426 118.398 119.426C116.318 119.426 114.654 117.65 114.654 115.458C114.654 113.266 116.318 111.506 118.398 111.506C119.646 111.506 120.606 112.05 121.166 112.994V111.65ZM118.782 117.762C120.142 117.762 121.166 116.786 121.166 115.458C121.166 114.146 120.142 113.154 118.782 113.154C117.454 113.154 116.414 114.178 116.414 115.458C116.414 116.754 117.454 117.762 118.782 117.762ZM134.478 111.666H136.27V119.49H134.478V118.114C133.918 119.09 132.958 119.65 131.71 119.65C129.63 119.65 127.966 117.826 127.966 115.57C127.966 113.314 129.63 111.506 131.71 111.506C132.958 111.506 133.918 112.066 134.478 113.042V111.666ZM132.094 117.954C133.454 117.954 134.478 116.93 134.478 115.57C134.478 114.226 133.454 113.202 132.094 113.202C130.766 113.202 129.726 114.258 129.726 115.57C129.726 116.898 130.766 117.954 132.094 117.954ZM142.739 113.362H140.691V116.514C140.691 117.506 141.299 117.906 142.163 117.906C142.355 117.906 142.563 117.89 142.739 117.842V119.49C142.467 119.554 142.067 119.586 141.779 119.586C140.051 119.586 138.899 118.53 138.899 116.546V113.362H137.411V111.666H138.899V109.57H140.691V111.666H142.739V113.362Z" fill="#2E2F33"></path><path d="M55.8255 150.36C55.8255 154.68 52.7455 158.08 48.1855 159.08V163.8H41.3055V158.8C37.1455 157.4 34.3455 153.88 34.3455 149.4H41.8655C41.8655 151.16 43.2255 152.24 45.2655 152.24C47.1455 152.24 48.3055 151.56 48.3055 150.36C48.3055 147.2 34.5455 149.6 34.5455 139.36C34.5455 135.28 37.2655 132.12 41.3055 131V126.2H48.1855V131.08C52.9455 132.44 54.9455 136.44 54.9455 140.6H47.0655C47.1055 139 46.1055 137.76 44.1855 137.76C42.7455 137.76 41.9455 138.28 41.9455 139.32C41.9455 142.4 55.8255 139.92 55.8255 150.36Z" fill="#2E2F33"></path><defs><clipPath id="clip0_915_702"><rect width="293.88" height="152.11" fill="white" transform="translate(93 29)"></rect></clipPath></defs></svg>