<svg class="svg-social" xmlns="http://www.w3.org/2000/svg" width="48" height="48" viewBox="0 0 48 48" fill="none"><rect width="48" height="48" rx="24" fill="currentColor"></rect><path class="social-logo" d="M36.625 24C36.625 29.8125 32.3594 34.6406 26.7812 35.4844V27.375H29.5L30.0156 24H26.7812V21.8438C26.7812 20.9062 27.25 20.0156 28.7031 20.0156H30.1562V17.1562C30.1562 17.1562 28.8438 16.9219 27.5312 16.9219C24.9062 16.9219 23.1719 18.5625 23.1719 21.4688V24H20.2188V27.375H23.1719V35.4844C17.5938 34.6406 13.375 29.8125 13.375 24C13.375 17.5781 18.5781 12.375 25 12.375C31.4219 12.375 36.625 17.5781 36.625 24Z" fill="currentColor"></path></svg>