<svg class="svg-icon" xmlns="http://www.w3.org/2000/svg" width="54" height="34" viewBox="0 0 54 34" fill="none"><path fill-rule="evenodd" clip-rule="evenodd" d="M17.0484 0C7.96156 0 0.595188 7.4476 0.595188 16.6347C0.595188 25.8218 7.96156 33.2694 17.0484 33.2694H34.8286C45.0879 33.2694 53.4048 24.8608 53.4048 14.4883V0H17.0484ZM10.6794 16.6347C10.6794 12.4925 14.0206 9.12225 18.157 9.12225H28.9397C27.2702 10.6717 26.1187 12.7827 25.778 15.159H17.3138V17.842H25.5385C24.9639 21.4124 21.8832 24.1471 18.157 24.1471C14.0206 24.1471 10.6794 20.7769 10.6794 16.6347ZM45.4436 9.12225H35.7574C31.6536 9.12225 28.3269 12.4857 28.3269 16.6347C28.3269 20.7837 31.6536 24.1471 35.7574 24.1471C39.8611 24.1471 43.1879 20.7837 43.1879 16.6347H45.8416C45.8416 22.2655 41.3267 26.8301 35.7574 26.8301C31.9929 26.8301 28.7101 24.7446 26.9778 21.654C25.2364 24.7464 21.9358 26.8301 18.157 26.8301C12.5684 26.8301 8.02569 22.2723 8.02569 16.6347C8.02569 10.9971 12.5684 6.43924 18.157 6.43924H35.7574H45.4436V9.12225Z" fill="currentColor"></path></svg>