<svg width="314" height="165" viewBox="0 0 314 165" fill="none" xmlns="http://www.w3.org/2000/svg">
<circle cx="157" cy="8" r="157" fill="#2E2F33"/>
<path fill-rule="evenodd" clip-rule="evenodd" d="M147.048 34C137.962 34 130.595 41.4476 130.595 50.6347C130.595 59.8218 137.962 67.2694 147.048 67.2694H164.829C175.088 67.2694 183.405 58.8608 183.405 48.4883V34H147.048ZM140.679 50.6347C140.679 46.4925 144.021 43.1223 148.157 43.1223H158.94C157.27 44.6717 156.119 46.7827 155.778 49.159H147.314V51.842H155.538C154.964 55.4124 151.883 58.1471 148.157 58.1471C144.021 58.1471 140.679 54.7769 140.679 50.6347ZM175.444 43.1223H165.757C161.654 43.1223 158.327 46.4857 158.327 50.6347C158.327 54.7837 161.654 58.1471 165.757 58.1471C169.861 58.1471 173.188 54.7837 173.188 50.6347H175.842C175.842 56.2655 171.327 60.8301 165.757 60.8301C161.993 60.8301 158.71 58.7446 156.978 55.654C155.236 58.7464 151.936 60.8301 148.157 60.8301C142.568 60.8301 138.026 56.2723 138.026 50.6347C138.026 44.9971 142.568 40.4392 148.157 40.4392H165.757H175.444V43.1223Z" fill="#FCF9F5"/>
<path d="M222.022 83.0683C225.921 83.0683 229 86.3897 229 90.5342C229 94.6787 225.921 98.0001 222.022 98.0001C219.53 98.0001 217.653 96.8244 216.598 94.8256V97.7062H213.871V77.1309H216.598V86.2428C217.653 84.244 219.53 83.0683 222.022 83.0683ZM221.465 95.4135C224.192 95.4135 226.332 93.2678 226.332 90.5342C226.332 87.8006 224.192 85.6549 221.465 85.6549C218.679 85.6549 216.598 87.7124 216.598 90.5342C216.598 93.356 218.679 95.4135 221.465 95.4135Z" fill="#FCF9F5"/>
<path d="M209.443 83.3623H212.14V97.7062H209.443V95.1784C208.534 96.9714 206.921 98.0002 204.839 98.0002C201.174 98.0002 198.858 95.5311 198.858 91.5924V83.3623H201.585V91.2691C201.585 93.7675 203.11 95.4136 205.455 95.4136C207.889 95.4136 209.443 93.7675 209.443 91.2691V83.3623Z" fill="#FCF9F5"/>
<path d="M197.166 77.1309V97.7062H194.44V77.1309H197.166Z" fill="#FCF9F5"/>
<path d="M183.892 98.0001C178.087 98.0001 173.63 93.3853 173.63 87.3597C173.63 81.4223 178.087 76.8369 183.892 76.8369C188.495 76.8369 192.541 79.8056 193.274 83.9501H190.137C189.433 81.3635 186.883 79.5705 183.892 79.5705C179.728 79.5705 176.533 82.9801 176.533 87.3597C176.533 91.8275 179.728 95.2665 183.892 95.2665C186.941 95.2665 189.492 93.356 190.166 90.6224H193.333C192.483 95.002 188.612 98.0001 183.892 98.0001Z" fill="#FCF9F5"/>
<path d="M161.931 83.0684C165.45 83.0684 167.766 85.361 167.766 89.0352V97.7062H165.068V89.5937C165.068 87.154 163.72 85.655 161.521 85.655C159.732 85.655 157.885 86.8013 157.885 89.5937V97.7062H155.188V89.5937C155.188 87.154 153.839 85.655 151.611 85.655C149.881 85.655 148.034 86.7425 148.034 89.5937V97.7062H145.307V83.3623H148.034V85.5962C149.06 83.715 150.907 83.0684 152.52 83.0684C154.777 83.0684 156.36 83.9796 157.211 85.8901C158.032 84.1265 159.908 83.0684 161.931 83.0684Z" fill="#FCF9F5"/>
<path d="M136.978 83.0684C141.112 83.0684 144.366 86.331 144.366 90.5637C144.366 94.7669 141.112 98.0002 136.978 98.0002C132.814 98.0002 129.589 94.7669 129.589 90.5637C129.589 86.331 132.814 83.0684 136.978 83.0684ZM136.978 85.655C134.28 85.655 132.228 87.7713 132.228 90.5637C132.228 93.2972 134.28 95.4135 136.978 95.4135C139.646 95.4135 141.728 93.2972 141.728 90.5637C141.728 87.7713 139.646 85.655 136.978 85.655Z" fill="#FCF9F5"/>
<path d="M121.436 83.0684C125.57 83.0684 128.824 86.331 128.824 90.5637C128.824 94.7669 125.57 98.0002 121.436 98.0002C117.272 98.0002 114.047 94.7669 114.047 90.5637C114.047 86.331 117.272 83.0684 121.436 83.0684ZM121.436 85.655C118.738 85.655 116.686 87.7713 116.686 90.5637C116.686 93.2972 118.738 95.4135 121.436 95.4135C124.104 95.4135 126.186 93.2972 126.186 90.5637C126.186 87.7713 124.104 85.655 121.436 85.655Z" fill="#FCF9F5"/>
<path d="M112.952 83.0977C113.392 83.0977 113.861 83.1564 114.271 83.274V85.7724C113.832 85.6255 113.333 85.5373 112.864 85.5373C110.724 85.5373 109.023 87.1245 109.023 89.623V97.7061H106.296V83.3622H109.023V85.4491C109.873 84.0088 111.251 83.0977 112.952 83.0977Z" fill="#FCF9F5"/>
<path d="M105.026 86.4779C105.114 86.9188 105.143 87.6243 105.143 88.1533C105.143 93.885 100.891 98.0001 95.2913 98.0001C89.4566 98.0001 85 93.3853 85 87.3891C85 81.4223 89.4566 76.8369 95.2913 76.8369C99.6893 76.8369 103.794 79.8644 104.703 83.3916H101.507C100.657 81.1577 97.9594 79.5705 95.2913 79.5705C91.1279 79.5705 87.9027 82.9801 87.9027 87.3891C87.9027 91.8275 91.1279 95.2665 95.4672 95.2665C99.0736 95.2665 101.888 92.7093 102.328 89.2115H95.5552V86.4779H105.026Z" fill="#FCF9F5"/>
</svg>
