<svg class="svg-footer-logo" xmlns="http://www.w3.org/2000/svg" width="702" height="405" viewBox="0 0 702 405" fill="none"><path d="M651.801 52.6636C681.61 52.6636 701.235 72.0398 701.235 103.092V176.374H678.381V107.811C678.381 87.1931 666.954 74.524 648.323 74.524C633.17 74.524 617.519 84.2121 617.519 107.811V176.374H594.665V107.811C594.665 87.1931 583.238 74.524 564.359 74.524C549.703 74.524 534.052 83.7153 534.052 107.811V176.374H510.95V55.1477H534.052V74.0272C542.747 58.1287 558.397 52.6636 572.06 52.6636C591.188 52.6636 604.602 60.3644 611.806 76.5113C618.762 61.6065 634.66 52.6636 651.801 52.6636Z" fill="currentColor"></path><path d="M440.381 52.6636C475.407 52.6636 502.981 80.2375 502.981 116.009C502.981 151.532 475.407 178.858 440.381 178.858C405.106 178.858 377.781 151.532 377.781 116.009C377.781 80.2375 405.106 52.6636 440.381 52.6636ZM440.381 74.524C417.527 74.524 400.138 92.4098 400.138 116.009C400.138 139.112 417.527 156.997 440.381 156.997C462.987 156.997 480.624 139.112 480.624 116.009C480.624 92.4098 462.987 74.524 440.381 74.524Z" fill="currentColor"></path><path d="M308.703 52.6636C343.729 52.6636 371.303 80.2375 371.303 116.009C371.303 151.532 343.729 178.858 308.703 178.858C273.428 178.858 246.102 151.532 246.102 116.009C246.102 80.2375 273.428 52.6636 308.703 52.6636ZM308.703 74.524C285.848 74.524 268.459 92.4098 268.459 116.009C268.459 139.112 285.848 156.997 308.703 156.997C331.308 156.997 348.946 139.112 348.946 116.009C348.946 92.4098 331.308 74.524 308.703 74.524Z" fill="currentColor"></path><path d="M236.824 52.9126C240.55 52.9126 244.524 53.4094 248.002 54.4031V75.5182C244.276 74.2762 240.053 73.5309 236.078 73.5309C217.944 73.5309 203.536 86.9453 203.536 108.06V176.374H180.434V55.1483H203.536V72.7857C210.74 60.6134 222.416 52.9126 236.824 52.9126Z" fill="currentColor"></path><path d="M169.667 81.4797C170.412 85.2059 170.66 91.1678 170.66 95.6393C170.66 144.08 134.64 178.858 87.1932 178.858C37.7589 178.858 0 139.857 0 89.1805C0 38.7525 37.7589 0 87.1932 0C124.455 0 159.233 25.5866 166.934 55.3963H139.857C132.653 36.5168 109.799 23.1025 87.1932 23.1025C51.9185 23.1025 24.593 51.9185 24.593 89.1805C24.593 126.691 51.9185 155.755 88.6837 155.755C119.239 155.755 143.086 134.143 146.812 104.582H89.4289V81.4797H169.667Z" fill="currentColor"></path><path d="M410.001 278.062C443.04 278.062 469.123 306.133 469.123 341.159C469.123 376.185 443.04 404.256 410.001 404.256C388.886 404.256 372.987 394.32 364.044 377.427V401.772H340.942V227.882H364.044V304.891C372.987 287.998 388.886 278.062 410.001 278.062ZM405.281 382.396C428.383 382.396 446.518 364.261 446.518 341.159C446.518 318.057 428.383 299.922 405.281 299.922C381.682 299.922 364.044 317.311 364.044 341.159C364.044 365.007 381.682 382.396 405.281 382.396Z" fill="currentColor"></path><path d="M303.423 280.546H326.277V401.772H303.423V380.409C295.722 395.562 282.06 404.256 264.422 404.256C233.371 404.256 213.746 383.39 213.746 350.102V280.546H236.848V347.37C236.848 368.485 249.766 382.396 269.639 382.396C290.257 382.396 303.423 368.485 303.423 347.37V280.546Z" fill="currentColor"></path><path d="M199.412 227.882V401.772H176.309V227.882H199.412Z" fill="currentColor"></path><path d="M86.9447 404.257C37.7588 404.257 0 365.256 0 314.331C0 264.151 37.7588 225.399 86.9447 225.399C125.946 225.399 160.227 250.489 166.437 285.515H139.857C133.895 263.655 112.283 248.501 86.9447 248.501C51.67 248.501 24.5929 277.317 24.5929 314.331C24.5929 352.09 51.67 381.154 86.9447 381.154C112.78 381.154 134.392 365.007 140.105 341.905H166.934C159.73 378.919 126.939 404.257 86.9447 404.257Z" fill="currentColor"></path><path fill-rule="evenodd" clip-rule="evenodd" d="M566.022 281.026C532.036 281.026 504.485 308.578 504.485 342.564C504.485 376.55 532.036 404.101 566.022 404.101H632.522C670.894 404.101 702 372.995 702 334.623V281.026H566.022ZM542.201 342.564C542.201 327.24 554.698 314.773 570.168 314.773H610.497C604.253 320.505 599.946 328.314 598.672 337.105H567.015V347.03H597.776C595.627 360.238 584.105 370.355 570.168 370.355C554.698 370.355 542.201 357.887 542.201 342.564ZM672.224 314.773H635.996C620.648 314.773 608.205 327.215 608.205 342.564C608.205 357.912 620.648 370.355 635.996 370.355C651.345 370.355 663.787 357.912 663.787 342.564H673.713C673.713 363.394 656.826 380.28 635.996 380.28C621.916 380.28 609.639 372.565 603.16 361.132C596.646 372.572 584.302 380.28 570.168 380.28C549.266 380.28 532.276 363.419 532.276 342.564C532.276 321.708 549.266 304.847 570.168 304.847H635.996H672.224V314.773Z" fill="currentColor"></path></svg>