<svg class="svg-wordmark" xmlns="http://www.w3.org/2000/svg" width="144" height="22" viewBox="0 0 144 22" fill="none"><path d="M137.022 7.06832C140.921 7.06832 144 10.3898 144 14.5342C144 18.6787 140.921 22.0001 137.022 22.0001C134.53 22.0001 132.653 20.8244 131.598 18.8256V21.7062H128.871V1.13087H131.598V10.2428C132.653 8.24405 134.53 7.06832 137.022 7.06832ZM136.465 19.4135C139.192 19.4135 141.332 17.2678 141.332 14.5342C141.332 11.8006 139.192 9.65493 136.465 9.65493C133.679 9.65493 131.598 11.7125 131.598 14.5342C131.598 17.356 133.679 19.4135 136.465 19.4135Z" fill="currentColor"></path><path d="M124.443 7.36221H127.14V21.7061H124.443V19.1783C123.534 20.9713 121.921 22.0001 119.839 22.0001C116.174 22.0001 113.858 19.531 113.858 15.5923V7.36221H116.585V15.269C116.585 17.7674 118.11 19.4135 120.455 19.4135C122.889 19.4135 124.443 17.7674 124.443 15.269V7.36221Z" fill="currentColor"></path><path d="M112.166 1.13087V21.7062H109.44V1.13087H112.166Z" fill="currentColor"></path><path d="M98.8919 22.0001C93.0866 22.0001 88.6299 17.3853 88.6299 11.3597C88.6299 5.42227 93.0866 0.836914 98.8919 0.836914C103.495 0.836914 107.541 3.80564 108.274 7.95009H105.137C104.433 5.36348 101.883 3.57049 98.8919 3.57049C94.7285 3.57049 91.5326 6.98011 91.5326 11.3597C91.5326 15.8275 94.7285 19.2665 98.8919 19.2665C101.941 19.2665 104.492 17.356 105.166 14.6224H108.333C107.483 19.002 103.612 22.0001 98.8919 22.0001Z" fill="currentColor"></path><path d="M76.9312 7.06831C80.4496 7.06831 82.7659 9.36098 82.7659 13.0351V21.7062H80.0685V13.5936C80.0685 11.154 78.7197 9.65492 76.5208 9.65492C74.7322 9.65492 72.8851 10.8013 72.8851 13.5936V21.7062H70.1876V13.5936C70.1876 11.154 68.8389 9.65492 66.6106 9.65492C64.8807 9.65492 63.0336 10.7425 63.0336 13.5936V21.7062H60.3068V7.36224H63.0336V9.59613C64.0598 7.71496 65.9069 7.06831 67.5195 7.06831C69.7772 7.06831 71.3604 7.9795 72.2107 9.89006C73.0317 8.12646 74.9082 7.06831 76.9312 7.06831Z" fill="currentColor"></path><path d="M51.9777 7.06831C56.1118 7.06831 59.3663 10.331 59.3663 14.5636C59.3663 18.7668 56.1118 22.0001 51.9777 22.0001C47.8142 22.0001 44.589 18.7668 44.589 14.5636C44.589 10.331 47.8142 7.06831 51.9777 7.06831ZM51.9777 9.65492C49.2802 9.65492 47.2278 11.7712 47.2278 14.5636C47.2278 17.2972 49.2802 19.4135 51.9777 19.4135C54.6458 19.4135 56.7275 17.2972 56.7275 14.5636C56.7275 11.7712 54.6458 9.65492 51.9777 9.65492Z" fill="currentColor"></path><path d="M36.4358 7.06831C40.5699 7.06831 43.8244 10.331 43.8244 14.5636C43.8244 18.7668 40.5699 22.0001 36.4358 22.0001C32.2724 22.0001 29.0472 18.7668 29.0472 14.5636C29.0472 10.331 32.2724 7.06831 36.4358 7.06831ZM36.4358 9.65492C33.7384 9.65492 31.686 11.7712 31.686 14.5636C31.686 17.2972 33.7384 19.4135 36.4358 19.4135C39.1039 19.4135 41.1856 17.2972 41.1856 14.5636C41.1856 11.7712 39.1039 9.65492 36.4358 9.65492Z" fill="currentColor"></path><path d="M27.952 7.09767C28.3918 7.09767 28.861 7.15646 29.2714 7.27403V9.77246C28.8316 9.6255 28.3332 9.53731 27.8641 9.53731C25.7237 9.53731 24.0232 11.1246 24.0232 13.623V21.7061H21.2964V7.36221H24.0232V9.44913C24.8734 8.00886 26.2515 7.09767 27.952 7.09767Z" fill="currentColor"></path><path d="M20.0255 10.4779C20.1135 10.9188 20.1428 11.6243 20.1428 12.1533C20.1428 17.885 15.8914 22.0001 10.2913 22.0001C4.45664 22.0001 0 17.3853 0 11.3891C0 5.42227 4.45664 0.836914 10.2913 0.836914C14.6893 0.836914 18.7941 3.86442 19.703 7.39162H16.5071C15.6569 5.15773 12.9594 3.57049 10.2913 3.57049C6.12787 3.57049 2.90268 6.98011 2.90268 11.3891C2.90268 15.8275 6.12788 19.2665 10.4672 19.2665C14.0736 19.2665 16.8883 16.7093 17.3281 13.2115H10.5552V10.4779H20.0255Z" fill="currentColor"></path></svg>