<svg width="151" height="24" viewBox="0 0 151 24" fill="none" xmlns="http://www.w3.org/2000/svg">
<path fill-rule="evenodd" clip-rule="evenodd" d="M5.01732 14.6211H4.2705C3.8703 14.6211 3.55378 14.9387 3.55378 15.3446V20.788C3.55378 21.1926 3.8703 21.5403 4.2705 21.5403C4.67202 21.5403 5.01732 21.1926 5.01732 20.788V14.6211ZM5.01732 23.5955V22.8715C4.18497 23.8272 2.78109 23.9435 2.00682 23.6822C0.573114 23.1912 0 22.2355 0 20.1795V16.0974C0 14.476 0.0857954 12.2462 4.2705 12.2462H5.01732L4.98881 7.03497C4.98881 6.6299 4.67202 6.2827 4.2705 6.2827C3.8703 6.2827 3.55378 6.6299 3.55378 7.03497V10.799H0V7.87523C0 6.25337 0.0857954 4.0531 4.2705 4.0531C8.48398 4.0531 8.54206 6.25337 8.54206 7.87523V23.5955H5.01732Z" fill="#2E2F33"/>
<path fill-rule="evenodd" clip-rule="evenodd" d="M15.0477 23.5679V22.6417C14.6472 23.3065 13.8722 23.7692 13.0414 23.7692C11.0924 23.7692 10.0322 22.7284 10.0322 20.702V4.22681H13.5863V20.7591C13.5863 21.1641 13.9007 21.5121 14.3022 21.5121C14.7037 21.5121 15.0477 21.1641 15.0477 20.7591V4.22681H18.573V23.5679H15.0477Z" fill="#2E2F33"/>
<path fill-rule="evenodd" clip-rule="evenodd" d="M24.3343 23.7693C20.1498 23.7693 20.063 21.5704 20.063 19.9477V16.0099H23.6181V20.7885C23.6181 21.1923 23.9328 21.512 24.3343 21.512C24.7358 21.512 25.0502 21.1923 25.0502 20.7885V15.2864C25.0502 14.8808 24.7358 14.5331 24.3343 14.5331H22.8422C22.5571 14.5331 22.2982 14.476 22.0695 14.4181C20.6366 13.8976 20.063 12.9419 20.063 10.8867V7.84614C20.063 6.22427 20.1498 4.02454 24.3343 4.02454C28.5462 4.02454 28.6043 6.22427 28.6043 7.84614V10.7699H25.0502V7.00667C25.0502 6.6016 24.7358 6.28267 24.3343 6.28267C23.9328 6.28267 23.6181 6.6016 23.6181 7.00667V11.4947C23.6181 11.9003 23.9328 12.2179 24.3343 12.2179H25.8229C26.1106 12.2179 26.3688 12.3051 26.5974 12.3629C28.0304 12.8843 28.6043 13.8392 28.6043 15.8957V19.9477C28.6043 21.5704 28.5462 23.7693 24.3343 23.7693Z" fill="#2E2F33"/>
<path fill-rule="evenodd" clip-rule="evenodd" d="M34.3647 23.7694C30.1805 23.7694 30.0947 21.5704 30.0947 19.9478V4.22668H33.6485V6.05015H38.636V9.03308H33.6485V20.7886C33.6485 21.1923 33.9642 21.512 34.3647 21.512C34.7662 21.512 35.0806 21.1923 35.0806 20.7886V12.2179H38.636V19.9478C38.636 21.5704 38.5779 23.7694 34.3647 23.7694Z" fill="#2E2F33"/>
<path fill-rule="evenodd" clip-rule="evenodd" d="M40.1836 23.5956H43.7374V4.28516H40.1836V23.5956Z" fill="#2E2F33"/>
<path fill-rule="evenodd" clip-rule="evenodd" d="M50.2718 23.5679V7.03535C50.2718 6.63055 49.9574 6.28255 49.5561 6.28255C49.1541 6.28255 48.8389 6.63055 48.8389 7.03535V23.5679H45.2856V4.22681H48.8389V5.15295C49.2116 4.48735 49.9857 4.02441 50.7876 4.02441C52.7662 4.02441 53.8256 5.06761 53.8256 7.09321V23.5679H50.2718Z" fill="#2E2F33"/>
<path fill-rule="evenodd" clip-rule="evenodd" d="M63.1208 7.29797C63.1208 6.89237 62.8056 6.54437 62.4033 6.54437H61.6594V17.3166H62.4033C62.8056 17.3166 63.1208 16.9977 63.1208 16.5934V7.29797ZM62.4033 19.662H61.6594V23.6006H58.1328V4.2865H62.4033C66.5904 4.2865 66.6759 6.4873 66.6759 8.1369V15.8398C66.6759 17.4617 66.5904 19.662 62.4033 19.662Z" fill="#2E2F33"/>
<path fill-rule="evenodd" clip-rule="evenodd" d="M72.925 7.03717C72.925 6.63157 72.6106 6.28437 72.2083 6.28437C71.8073 6.28437 71.4913 6.63157 71.4913 7.03717V12.2492H72.925V7.03717ZM72.2083 23.8033C68.0228 23.8033 67.937 21.603 67.937 19.9812V7.87664C67.937 6.22597 68.0228 4.0249 72.2083 4.0249C76.3938 4.0249 76.4796 6.22597 76.4796 7.87664V14.5945H71.4913V20.7916C71.4913 21.1974 71.8073 21.5438 72.2083 21.5438C72.6106 21.5438 72.925 21.1974 72.925 20.7916V16.0721H76.4796V19.9812C76.4796 21.603 76.3938 23.8033 72.2083 23.8033Z" fill="#2E2F33"/>
<path fill-rule="evenodd" clip-rule="evenodd" d="M82.2402 23.7744C78.0555 23.7744 77.9697 21.5741 77.9697 19.9514V4.22852H81.5256V6.05198H86.5134V9.03465H81.5256V20.7917C81.5256 21.1973 81.8406 21.5157 82.2402 21.5157C82.6431 21.5157 82.9569 21.1973 82.9569 20.7917V12.2194H86.5134V19.9514C86.5134 21.5741 86.4558 23.7744 82.2402 23.7744Z" fill="#2E2F33"/>
<path fill-rule="evenodd" clip-rule="evenodd" d="M92.2752 23.7744C88.0892 23.7744 88.0039 21.5741 88.0039 19.9514V16.013H91.5577V20.7917C91.5577 21.1973 91.8747 21.5157 92.2752 21.5157C92.6749 21.5157 92.9919 21.1973 92.9919 20.7917V15.289C92.9919 14.8848 92.6749 14.5368 92.2752 14.5368H90.7839C90.4975 14.5368 90.2393 14.4789 90.0099 14.4205C88.5765 13.8994 88.0039 12.9437 88.0039 10.8877V7.84798C88.0039 6.22585 88.0892 4.02478 92.2752 4.02478C96.4887 4.02478 96.546 6.22585 96.546 7.84798V10.7722H92.9919V7.00825C92.9919 6.60265 92.6749 6.28451 92.2752 6.28451C91.8747 6.28451 91.5577 6.60265 91.5577 7.00825V11.4962C91.5577 11.9005 91.8747 12.2194 92.2752 12.2194H93.7646C94.0516 12.2194 94.3089 12.3069 94.5383 12.3653C95.9726 12.8858 96.546 13.8421 96.546 15.8981V19.9514C96.546 21.5741 96.4887 23.7744 92.2752 23.7744Z" fill="#2E2F33"/>
<path fill-rule="evenodd" clip-rule="evenodd" d="M105.868 14.6203H105.123C104.72 14.6203 104.407 14.94 104.407 15.3435V20.788C104.407 21.1941 104.72 21.5403 105.123 21.5403C105.524 21.5403 105.868 21.1941 105.868 20.788V14.6203ZM105.868 23.596V22.872C105.038 23.8277 103.633 23.9432 102.859 23.6827C101.426 23.1904 100.853 22.2347 100.853 20.18V16.0973C100.853 14.4757 100.939 12.2467 105.123 12.2467H105.868L105.84 7.03546C105.84 6.63066 105.524 6.28319 105.123 6.28319C104.72 6.28319 104.407 6.63066 104.407 7.03546V10.7992H100.853V7.87519C100.853 6.25359 100.939 4.05359 105.123 4.05359C109.336 4.05359 109.394 6.25359 109.394 7.87519V23.596H105.868Z" fill="#2E2F33"/>
<path fill-rule="evenodd" clip-rule="evenodd" d="M110.884 23.5957V4.28479H114.408V20.6144H116.758V23.5957H110.884Z" fill="#2E2F33"/>
<path fill-rule="evenodd" clip-rule="evenodd" d="M117.792 23.5961H121.344V4.28516H117.792V23.5961Z" fill="#2E2F33"/>
<path fill-rule="evenodd" clip-rule="evenodd" d="M129.885 23.5957H124.87L122.261 4.28479H125.787L127.364 21.308L128.968 4.28479H132.493L129.885 23.5957Z" fill="#2E2F33"/>
<path fill-rule="evenodd" clip-rule="evenodd" d="M138.34 7.03547C138.34 6.6304 138.024 6.2832 137.623 6.2832C137.222 6.2832 136.905 6.6304 136.905 7.03547V12.2467H138.34V7.03547ZM137.623 23.7989C133.439 23.7989 133.352 21.5979 133.352 19.9765V7.87494C133.352 6.2248 133.439 4.02454 137.623 4.02454C141.808 4.02454 141.893 6.2248 141.893 7.87494V14.592H136.905V20.788C136.905 21.1941 137.222 21.5403 137.623 21.5403C138.024 21.5403 138.34 21.1941 138.34 20.788V16.0669H141.893V19.9765C141.893 21.5979 141.808 23.7989 137.623 23.7989Z" fill="#2E2F33"/>
<path fill-rule="evenodd" clip-rule="evenodd" d="M148.395 16.2274H145.403L144.802 0.266602H149.032L148.395 16.2274Z" fill="#2E2F33"/>
<path fill-rule="evenodd" clip-rule="evenodd" d="M148.903 21.7344C148.903 22.9408 147.935 23.9186 146.74 23.9186C145.545 23.9186 144.577 22.9408 144.577 21.7344C144.577 20.5269 145.545 19.5482 146.74 19.5482C147.935 19.5482 148.903 20.5269 148.903 21.7344Z" fill="#2E2F33"/>
<path fill-rule="evenodd" clip-rule="evenodd" d="M149.761 20.8882C150.078 20.5047 150.51 20.3407 150.725 20.5242C150.939 20.705 150.854 21.1636 150.536 21.545C150.218 21.9292 149.786 22.0932 149.572 21.9092C149.357 21.7284 149.441 21.269 149.761 20.8882Z" fill="#2E2F33"/>
<path fill-rule="evenodd" clip-rule="evenodd" d="M149.121 19.0779C149.439 18.6944 149.87 18.5325 150.086 18.7131C150.299 18.8957 150.214 19.3539 149.896 19.7347C149.578 20.1189 149.146 20.2821 148.932 20.1C148.718 19.9195 148.801 19.4608 149.121 19.0779Z" fill="#2E2F33"/>
<path fill-rule="evenodd" clip-rule="evenodd" d="M147.88 17.9868C148.198 17.6033 148.63 17.4401 148.846 17.622C149.059 17.8041 148.975 18.2628 148.657 18.6444C148.339 19.0284 147.906 19.1902 147.692 19.0089C147.478 18.8262 147.562 18.3689 147.88 17.9868Z" fill="#2E2F33"/>
<path fill-rule="evenodd" clip-rule="evenodd" d="M145.898 17.7794C146.217 17.3965 146.648 17.2333 146.861 17.4159C147.077 17.5973 146.993 18.0554 146.675 18.4383C146.357 18.8218 145.924 18.9837 145.71 18.8029C145.496 18.6202 145.58 18.1615 145.898 17.7794Z" fill="#2E2F33"/>
</svg>
